SourceSerif_ExtraLight.ufo
<glyph name="J" format="1">
	<unicode hex="004A"/>
	<advance width="356"/>
	<outline>
		<contour>
			<point x="177" y="677" type="line"/>
			<point x="182" y="154"/>
			<point x="179" y="124"/>
			<point x="179" y="95" type="curve" smooth="yes"/>
			<point x="179" y="-60"/>
			<point x="106" y="-114"/>
			<point x="59" y="-128" type="curve"/>
			<point x="56" y="-135" type="line"/>
			<point x="67" y="-136" type="line"/>
			<point x="82" y="-129" type="line"/>
			<point x="65" y="-119" type="line" smooth="yes"/>
			<point x="42" y="-106"/>
			<point x="26" y="-102"/>
			<point x="7" y="-102" type="curve" smooth="yes"/>
			<point x="-12" y="-102"/>
			<point x="-29" y="-110"/>
			<point x="-33" y="-126" type="curve"/>
			<point x="-25" y="-141"/>
			<point x="-6" y="-147"/>
			<point x="25" y="-147" type="curve" smooth="yes"/>
			<point x="121" y="-147"/>
			<point x="201" y="-63"/>
			<point x="207" y="74" type="curve" smooth="yes"/>
			<point x="208" y="99"/>
			<point x="210" y="124"/>
			<point x="210" y="198" type="curve" smooth="yes"/>
			<point x="210" y="362" type="line" smooth="yes"/>
			<point x="210" y="469"/>
			<point x="210" y="574"/>
			<point x="212" y="677" type="curve"/>
		</contour>
		<contour>
			<point x="60" y="657" type="line"/>
			<point x="187" y="650" type="line"/>
			<point x="201" y="650" type="line"/>
			<point x="318" y="657" type="line"/>
			<point x="318" y="677" type="line"/>
			<point x="60" y="677" type="line"/>
		</contour>
		<contour>
			<point name="aboveUC" x="188" y="682" type="move"/>
		</contour>
		<contour>
			<point name="belowLC" x="80" y="-162" type="move"/>
		</contour>
	</outline>
</glyph>
<glyph name="T" format="1">
	<unicode hex="0054"/>
	<advance width="594"/>
	<outline>
		<contour>
			<point x="290" y="27" type="line"/>
			<point x="163" y="20" type="line"/>
			<point x="163" y="0" type="line"/>
			<point x="431" y="0" type="line"/>
			<point x="431" y="20" type="line"/>
			<point x="304" y="27" type="line"/>
		</contour>
		<contour>
			<point x="282" y="310" type="line" smooth="yes"/>
			<point x="282" y="206"/>
			<point x="282" y="102"/>
			<point x="280" y="0" type="curve"/>
			<point x="314" y="0" type="line"/>
			<point x="312" y="102"/>
			<point x="312" y="206"/>
			<point x="312" y="310" type="curve" smooth="yes"/>
			<point x="312" y="367" type="line" smooth="yes"/>
			<point x="312" y="471"/>
			<point x="312" y="575"/>
			<point x="314" y="677" type="curve"/>
			<point x="280" y="677" type="line"/>
			<point x="282" y="575"/>
			<point x="282" y="471"/>
			<point x="282" y="367" type="curve" smooth="yes"/>
		</contour>
		<contour>
			<point x="545" y="655" type="line"/>
			<point x="531" y="677" type="line"/>
			<point x="550" y="514" type="line"/>
			<point x="574" y="514" type="line"/>
			<point x="564" y="677" type="line"/>
			<point x="30" y="677" type="line"/>
			<point x="20" y="514" type="line"/>
			<point x="44" y="514" type="line"/>
			<point x="63" y="677" type="line"/>
			<point x="49" y="655" type="line"/>
		</contour>
		<contour>
			<point name="aboveUC" x="297" y="682" type="move"/>
		</contour>
		<contour>
			<point name="belowLC" x="297" y="-22" type="move"/>
		</contour>
		<contour>
			<point name="baseLC" x="297" y="0" type="move"/>
		</contour>
	</outline>
</glyph>
<glyph name="y" format="1">
	<unicode hex="0079"/>
	<advance width="492"/>
	<outline>
		<contour>
			<point x="415" y="444" type="line"/>
			<point x="493" y="450" type="line"/>
			<point x="493" y="470" type="line"/>
			<point x="310" y="470" type="line"/>
			<point x="310" y="450" type="line"/>
			<point x="406" y="444" type="line"/>
		</contour>
		<contour>
			<point x="84" y="444" type="line"/>
			<point x="180" y="450" type="line"/>
			<point x="180" y="470" type="line"/>
			<point x="-14" y="470" type="line"/>
			<point x="-14" y="450" type="line"/>
			<point x="75" y="444" type="line"/>
		</contour>
		<contour>
			<point x="256" y="6" type="line"/>
			<point x="83" y="470" type="line"/>
			<point x="50" y="470" type="line"/>
			<point x="242" y="-26" type="line"/>
		</contour>
		<contour>
			<point x="51" y="-255" type="curve" smooth="yes"/>
			<point x="120" y="-255"/>
			<point x="187" y="-196"/>
			<point x="232" y="-75" type="curve" smooth="yes"/>
			<point x="434" y="470" type="line"/>
			<point x="408" y="470" type="line"/>
			<point x="243" y="13" type="line"/>
			<point x="211" y="-73" type="line" smooth="yes"/>
			<point x="174" y="-173"/>
			<point x="113" y="-236"/>
			<point x="51" y="-236" type="curve"/>
			<point x="68" y="-248" type="line"/>
			<point x="88" y="-244" type="line"/>
			<point x="65" y="-227" type="line" smooth="yes"/>
			<point x="47" y="-214"/>
			<point x="29" y="-205"/>
			<point x="13" y="-205" type="curve" smooth="yes"/>
			<point x="-3" y="-205"/>
			<point x="-16" y="-212"/>
			<point x="-19" y="-225" type="curve"/>
			<point x="-11" y="-247"/>
			<point x="21" y="-255"/>
		</contour>
		<contour>
			<point name="aboveLC" x="250" y="500" type="move"/>
		</contour>
		<contour>
			<point name="belowLC" x="108" y="-252" type="move"/>
		</contour>
	</outline>
</glyph>
<glyph name="dieresis" format="1">
	<unicode hex="00A8"/>
	<advance width="400"/>
	<outline>
		<component base="dieresiscmb" xOffset="200"/>
		<contour>
			<point name="_aboveLC" x="200" y="500" type="move"/>
		</contour>
	</outline>
</glyph>
<glyph name="Eogonek" format="1">
	<unicode hex="0118"/>
	<advance width="601"/>
	<outline>
		<component base="E"/>
		<component base="ogonekcmb" xOffset="480"/>
		<contour>
			<point name="aboveUC" x="325" y="682" type="move"/>
		</contour>
	</outline>
</glyph>
<glyph name="Ohorn" format="1">
	<unicode hex="01A0"/>
	<advance width="706"/>
	<outline>
		<component base="O"/>
		<component base="horncmb" xOffset="510" yOffset="211"/>
		<contour>
			<point name="aboveUC" x="353" y="682" type="move"/>
		</contour>
		<contour>
			<point name="belowLC" x="358" y="-22" type="move"/>
		</contour>
	</outline>
</glyph>
<glyph name="ohorn" format="1">
	<unicode hex="01A1"/>
	<advance width="538"/>
	<outline>
		<component base="o"/>
		<component base="horncmb" xOffset="405"/>
		<contour>
			<point name="aboveLC" x="269" y="500" type="move"/>
		</contour>
		<contour>
			<point name="belowLC" x="266" y="-22" type="move"/>
		</contour>
	</outline>
</glyph>
<glyph name="circumflexcmb" format="1">
	<unicode hex="0302"/>
	<outline>
		<contour>
			<point x="109" y="553" type="line"/>
			<point x="120" y="562" type="line"/>
			<point x="7" y="719" type="line"/>
			<point x="-7" y="719" type="line"/>
			<point x="-120" y="562" type="line"/>
			<point x="-109" y="553" type="line"/>
			<point x="7" y="688" type="line"/>
			<point x="-7" y="688" type="line"/>
		</contour>
		<contour>
			<point name="_aboveLC" x="0" y="500" type="move"/>
		</contour>
		<contour>
			<point name="aboveLC" x="0" y="699" type="move"/>
		</contour>
	</outline>
</glyph>
<glyph name="macroncmb" format="1">
	<unicode hex="0304"/>
	<outline>
		<contour>
			<point x="-120" y="631" type="line"/>
			<point x="120" y="631" type="line"/>
			<point x="120" y="657" type="line"/>
			<point x="-120" y="657" type="line"/>
		</contour>
		<contour>
			<point name="_aboveLC" x="0" y="500" type="move"/>
		</contour>
	</outline>
</glyph>
<glyph name="delta" format="1">
	<unicode hex="03B4"/>
	<advance width="524"/>
	<outline>
		<contour>
			<point x="52" y="235" type="curve" smooth="yes"/>
			<point x="52" y="72"/>
			<point x="146" y="-13"/>
			<point x="268" y="-13" type="curve" smooth="yes"/>
			<point x="373" y="-13"/>
			<point x="466" y="79"/>
			<point x="466" y="237" type="curve" smooth="yes"/>
			<point x="466" y="346"/>
			<point x="423" y="418"/>
			<point x="289" y="499" type="curve" smooth="yes"/>
			<point x="183" y="562"/>
			<point x="149" y="597"/>
			<point x="149" y="642" type="curve" smooth="yes"/>
			<point x="149" y="701"/>
			<point x="213" y="727"/>
			<point x="301" y="728" type="curve" smooth="yes"/>
			<point x="337" y="728"/>
			<point x="369" y="721"/>
			<point x="400" y="701" type="curve"/>
			<point x="395" y="717" type="line"/>
			<point x="364" y="724" type="line"/>
			<point x="417" y="671" type="line" smooth="yes"/>
			<point x="427" y="661"/>
			<point x="437" y="653"/>
			<point x="450" y="653" type="curve" smooth="yes"/>
			<point x="465" y="653"/>
			<point x="474" y="664"/>
			<point x="471" y="681" type="curve"/>
			<point x="426" y="725"/>
			<point x="364" y="748"/>
			<point x="300" y="748" type="curve" smooth="yes"/>
			<point x="200" y="748"/>
			<point x="125" y="715"/>
			<point x="125" y="641" type="curve" smooth="yes"/>
			<point x="125" y="589"/>
			<point x="166" y="540"/>
			<point x="278" y="483" type="curve"/>
			<point x="278" y="480" type="line"/>
			<point x="406" y="405"/>
			<point x="436" y="341"/>
			<point x="436" y="238" type="curve" smooth="yes"/>
			<point x="436" y="91"/>
			<point x="361" y="10"/>
			<point x="265" y="10" type="curve" smooth="yes"/>
			<point x="156" y="10"/>
			<point x="82" y="91"/>
			<point x="82" y="243" type="curve" smooth="yes"/>
			<point x="82" y="378"/>
			<point x="157" y="451"/>
			<point x="291" y="475" type="curve"/>
			<point x="287" y="490" type="line"/>
			<point x="144" y="472"/>
			<point x="52" y="384"/>
		</contour>
	</outline>
</glyph>
<glyph name="digamma" format="1">
	<unicode hex="03DD"/>
	<advance width="428"/>
	<outline>
		<contour>
			<point x="112" y="-184" type="line"/>
			<point x="122" y="-190" type="line"/>
			<point x="144" y="-182" type="line"/>
			<point x="136" y="85" type="line"/>
			<point x="136" y="183"/>
			<point x="138" y="271"/>
			<point x="142" y="456" type="curve"/>
			<point x="129" y="446" type="line"/>
			<point x="408" y="442" type="line"/>
			<point x="408" y="473" type="line"/>
			<point x="110" y="465" type="line"/>
			<point x="119" y="80" type="line"/>
		</contour>
		<contour>
			<point x="129" y="166" type="line"/>
			<point x="388" y="159" type="line"/>
			<point x="388" y="190" type="line"/>
			<point x="129" y="187" type="line"/>
		</contour>
		<contour>
			<point name="aboveLC" x="258" y="500" type="move"/>
		</contour>
	</outline>
</glyph>
<glyph name="Dje" format="1">
	<unicode hex="0402"/>
	<advance width="698"/>
	<outline>
		<contour>
			<point x="20" y="514" type="line"/>
			<point x="44" y="514" type="line"/>
			<point x="63" y="677" type="line"/>
			<point x="49" y="655" type="line"/>
			<point x="545" y="655" type="line"/>
			<point x="531" y="677" type="line"/>
			<point x="550" y="514" type="line"/>
			<point x="574" y="514" type="line"/>
			<point x="564" y="677" type="line"/>
			<point x="30" y="677" type="line"/>
		</contour>
		<contour>
			<point x="153" y="0" type="line"/>
			<point x="286" y="0" type="line"/>
			<point x="286" y="27" type="line"/>
			<point x="280" y="27" type="line"/>
			<point x="153" y="20" type="line"/>
		</contour>
		<contour>
			<point x="270" y="0" type="curve"/>
			<point x="304" y="0" type="line"/>
			<point x="302" y="102"/>
			<point x="302" y="206"/>
			<point x="302" y="310" type="curve" smooth="yes"/>
			<point x="302" y="354" type="line" smooth="yes"/>
			<point x="302" y="471"/>
			<point x="302" y="575"/>
			<point x="304" y="677" type="curve"/>
			<point x="270" y="677" type="line"/>
			<point x="272" y="575"/>
			<point x="272" y="471"/>
			<point x="272" y="367" type="curve" smooth="yes"/>
			<point x="272" y="310" type="line" smooth="yes"/>
			<point x="272" y="206"/>
			<point x="272" y="102"/>
		</contour>
		<contour>
			<point x="461" y="-59" type="line"/>
			<point x="577" y="-47"/>
			<point x="650" y="41"/>
			<point x="650" y="156" type="curve" smooth="yes"/>
			<point x="650" y="275"/>
			<point x="573" y="373"/>
			<point x="418" y="372" type="curve" smooth="yes"/>
			<point x="375" y="372"/>
			<point x="333" y="370"/>
			<point x="287" y="361" type="curve"/>
			<point x="287" y="341" type="line"/>
			<point x="329" y="350"/>
			<point x="367" y="352"/>
			<point x="406" y="352" type="curve" smooth="yes"/>
			<point x="560" y="352"/>
			<point x="620" y="263"/>
			<point x="620" y="156" type="curve" smooth="yes"/>
			<point x="620" y="49"/>
			<point x="565" y="-22"/>
			<point x="457" y="-41" type="curve"/>
		</contour>
	</outline>
</glyph>
<glyph name="be" format="1">
	<unicode hex="0431"/>
	<advance width="538"/>
	<outline>
		<contour>
			<point x="87" y="300" type="line"/>
			<point x="95" y="491"/>
			<point x="130" y="569"/>
			<point x="182" y="616" type="curve" smooth="yes"/>
			<point x="209" y="640"/>
			<point x="247" y="658"/>
			<point x="327" y="671" type="curve" smooth="yes"/>
			<point x="388" y="681"/>
			<point x="450" y="690"/>
			<point x="465" y="703" type="curve" smooth="yes"/>
			<point x="477" y="714"/>
			<point x="481" y="736"/>
			<point x="486" y="771" type="curve"/>
			<point x="466" y="775" type="line"/>
			<point x="446" y="721" type="line"/>
			<point x="413" y="714"/>
			<point x="362" y="705"/>
			<point x="318" y="696" type="curve" smooth="yes"/>
			<point x="253" y="683"/>
			<point x="207" y="671"/>
			<point x="165" y="634" type="curve" smooth="yes"/>
			<point x="103" y="582"/>
			<point x="70" y="453"/>
			<point x="70" y="288" type="curve" smooth="yes"/>
			<point x="70" y="83"/>
			<point x="153" y="-13"/>
			<point x="283" y="-13" type="curve" smooth="yes"/>
			<point x="382" y="-13"/>
			<point x="486" y="60"/>
			<point x="486" y="250" type="curve" smooth="yes"/>
			<point x="486" y="399"/>
			<point x="393" y="476"/>
			<point x="283" y="476" type="curve" smooth="yes"/>
			<point x="174" y="476"/>
			<point x="112" y="404"/>
			<point x="84" y="302" type="curve"/>
		</contour>
		<contour>
			<point x="283" y="456" type="curve" smooth="yes"/>
			<point x="387" y="456"/>
			<point x="454" y="384"/>
			<point x="454" y="244" type="curve" smooth="yes"/>
			<point x="454" y="111"/>
			<point x="386" y="7"/>
			<point x="283" y="7" type="curve" smooth="yes"/>
			<point x="180" y="7"/>
			<point x="104" y="106"/>
			<point x="104" y="244" type="curve" smooth="yes"/>
			<point x="104" y="374"/>
			<point x="181" y="456"/>
		</contour>
	</outline>
</glyph>
<glyph name="che" format="1">
	<unicode hex="0447"/>
	<advance width="534"/>
	<outline>
		<contour>
			<point x="15" y="450" type="line"/>
			<point x="103" y="444" type="line"/>
			<point x="113" y="444" type="line"/>
			<point x="211" y="450" type="line"/>
			<point x="211" y="470" type="line"/>
			<point x="15" y="470" type="line"/>
		</contour>
		<contour>
			<point x="92" y="365" type="line" smooth="yes"/>
			<point x="91" y="252"/>
			<point x="121" y="199"/>
			<point x="251" y="199" type="curve" smooth="yes"/>
			<point x="291" y="199"/>
			<point x="340" y="207"/>
			<point x="386" y="215" type="curve"/>
			<point x="386" y="235" type="line"/>
			<point x="340" y="226"/>
			<point x="292" y="225"/>
			<point x="251" y="225" type="curve" smooth="yes"/>
			<point x="142" y="225"/>
			<point x="120" y="270"/>
			<point x="120" y="376" type="curve" smooth="yes"/>
			<point x="120" y="408"/>
			<point x="121" y="433"/>
			<point x="123" y="470" type="curve"/>
			<point x="93" y="470" type="line"/>
		</contour>
		<contour>
			<point x="283" y="0" type="line"/>
			<point x="489" y="0" type="line"/>
			<point x="489" y="20" type="line"/>
			<point x="391" y="26" type="line"/>
			<point x="381" y="26" type="line"/>
			<point x="283" y="20" type="line"/>
		</contour>
		<contour>
			<point x="283" y="450" type="line"/>
			<point x="381" y="444" type="line"/>
			<point x="391" y="444" type="line"/>
			<point x="489" y="450" type="line"/>
			<point x="489" y="470" type="line"/>
			<point x="283" y="470" type="line"/>
		</contour>
		<contour>
			<point x="369" y="0" type="curve"/>
			<point x="403" y="0" type="line"/>
			<point x="401" y="45"/>
			<point x="400" y="148"/>
			<point x="400" y="210" type="curve" smooth="yes"/>
			<point x="400" y="260" type="line" smooth="yes"/>
			<point x="400" y="322"/>
			<point x="401" y="425"/>
			<point x="403" y="470" type="curve"/>
			<point x="369" y="470" type="line"/>
			<point x="371" y="425"/>
			<point x="372" y="322"/>
			<point x="372" y="260" type="curve" smooth="yes"/>
			<point x="372" y="221" type="line" smooth="yes"/>
			<point x="372" y="148"/>
			<point x="371" y="45"/>
		</contour>
		<contour>
			<point name="aboveLC" x="247" y="500" type="move"/>
		</contour>
	</outline>
</glyph>
<glyph name="kadescender" format="1">
	<unicode hex="049B"/>
	<advance width="519"/>
	<outline>
		<contour>
			<point x="484" y="0" type="line"/>
			<point x="468" y="17" type="line"/>
			<point x="481" y="-140" type="line"/>
			<point x="503" y="-140" type="line"/>
			<point x="504" y="18" type="line"/>
			<point x="401" y="25" type="line"/>
			<point x="411" y="0" type="line"/>
		</contour>
		<component base="ka"/>
	</outline>
</glyph>
<glyph name="brevecmb.cyrcap" format="1">
	<outline>
		<contour>
			<point x="0" y="738" type="curve" smooth="yes"/>
			<point x="71" y="738"/>
			<point x="141" y="778"/>
			<point x="141" y="864" type="curve"/>
			<point x="136" y="877"/>
			<point x="129" y="881"/>
			<point x="121" y="881" type="curve" smooth="yes"/>
			<point x="105" y="881"/>
			<point x="98" y="867"/>
			<point x="98" y="853" type="curve" smooth="yes"/>
			<point x="98" y="829"/>
			<point x="103" y="807"/>
			<point x="106" y="787" type="curve"/>
			<point x="120" y="821" type="line"/>
			<point x="83" y="773"/>
			<point x="51" y="758"/>
			<point x="0" y="758" type="curve" smooth="yes"/>
			<point x="-51" y="758"/>
			<point x="-83" y="773"/>
			<point x="-120" y="821" type="curve"/>
			<point x="-106" y="787" type="line"/>
			<point x="-103" y="807"/>
			<point x="-98" y="829"/>
			<point x="-98" y="853" type="curve" smooth="yes"/>
			<point x="-98" y="867"/>
			<point x="-105" y="881"/>
			<point x="-121" y="881" type="curve" smooth="yes"/>
			<point x="-129" y="881"/>
			<point x="-136" y="877"/>
			<point x="-141" y="864" type="curve"/>
			<point x="-141" y="778"/>
			<point x="-71" y="738"/>
		</contour>
		<contour>
			<point name="_aboveUC" x="0" y="682" type="move"/>
		</contour>
	</outline>
</glyph>
<glyph name="brevehoi" format="1">
	<outline>
		<component base="hoicmb.cap" yOffset="-40"/>
		<component base="brevecmb.cap" yOffset="-152"/>
		<contour>
			<point name="_aboveLC" x="0" y="500" type="move"/>
		</contour>
	</outline>
</glyph>
<glyph name="circumflexcmb.cap" format="1">
	<outline>
		<contour>
			<point x="7" y="842" type="line"/>
			<point x="-7" y="842" type="line"/>
			<point x="-137" y="730" type="line"/>
			<point x="-129" y="720" type="line"/>
			<point x="9" y="811" type="line"/>
			<point x="-9" y="811" type="line"/>
			<point x="129" y="720" type="line"/>
			<point x="137" y="730" type="line"/>
		</contour>
		<contour>
			<point name="_aboveUC" x="0" y="682" type="move"/>
		</contour>
	</outline>
</glyph>
<glyph name="eight.cap" format="1">
	<advance width="490"/>
	<outline>
		<contour>
			<point x="52" y="149" type="curve" smooth="yes"/>
			<point x="52" y="55"/>
			<point x="117" y="-13"/>
			<point x="242" y="-13" type="curve" smooth="yes"/>
			<point x="359" y="-13"/>
			<point x="438" y="51"/>
			<point x="438" y="152" type="curve" smooth="yes"/>
			<point x="438" y="237"/>
			<point x="392" y="300"/>
			<point x="251" y="359" type="curve" smooth="yes"/>
			<point x="141" y="404"/>
			<point x="103" y="464"/>
			<point x="103" y="536" type="curve" smooth="yes"/>
			<point x="103" y="619"/>
			<point x="170" y="670"/>
			<point x="244" y="670" type="curve" smooth="yes"/>
			<point x="334" y="670"/>
			<point x="381" y="608"/>
			<point x="381" y="537" type="curve" smooth="yes"/>
			<point x="381" y="455"/>
			<point x="336" y="400"/>
			<point x="235" y="354" type="curve"/>
			<point x="250" y="347" type="line"/>
			<point x="368" y="392"/>
			<point x="409" y="464"/>
			<point x="409" y="537" type="curve" smooth="yes"/>
			<point x="409" y="629"/>
			<point x="344" y="690"/>
			<point x="244" y="690" type="curve" smooth="yes"/>
			<point x="151" y="690"/>
			<point x="75" y="628"/>
			<point x="75" y="535" type="curve" smooth="yes"/>
			<point x="75" y="455"/>
			<point x="116" y="387"/>
			<point x="228" y="340" type="curve" smooth="yes"/>
			<point x="365" y="283"/>
			<point x="410" y="222"/>
			<point x="410" y="149" type="curve" smooth="yes"/>
			<point x="410" y="63"/>
			<point x="347" y="7"/>
			<point x="242" y="7" type="curve" smooth="yes"/>
			<point x="138" y="7"/>
			<point x="80" y="64"/>
			<point x="80" y="151" type="curve" smooth="yes"/>
			<point x="80" y="231"/>
			<point x="127" y="286"/>
			<point x="245" y="342" type="curve"/>
			<point x="228" y="350" type="line"/>
			<point x="113" y="298"/>
			<point x="52" y="238"/>
		</contour>
	</outline>
</glyph>
<glyph name="nine.cap" format="1">
	<advance width="490"/>
	<outline>
		<contour>
			<point x="81" y="481" type="curve" smooth="yes"/>
			<point x="81" y="599"/>
			<point x="150" y="670"/>
			<point x="236" y="670" type="curve" smooth="yes"/>
			<point x="326" y="670"/>
			<point x="399" y="575"/>
			<point x="399" y="423" type="curve" smooth="yes"/>
			<point x="399" y="247"/>
			<point x="287" y="81"/>
			<point x="79" y="4" type="curve"/>
			<point x="85" y="-13" type="line"/>
			<point x="311" y="60"/>
			<point x="431" y="228"/>
			<point x="431" y="425" type="curve" smooth="yes"/>
			<point x="431" y="590"/>
			<point x="348" y="690"/>
			<point x="237" y="690" type="curve" smooth="yes"/>
			<point x="130" y="690"/>
			<point x="51" y="608"/>
			<point x="49" y="485" type="curve" smooth="yes"/>
			<point x="47" y="359"/>
			<point x="128" y="278"/>
			<point x="241" y="278" type="curve" smooth="yes"/>
			<point x="320" y="278"/>
			<point x="384" y="321"/>
			<point x="415" y="389" type="curve"/>
			<point x="407" y="393" type="line"/>
			<point x="368" y="332"/>
			<point x="308" y="298"/>
			<point x="248" y="298" type="curve" smooth="yes"/>
			<point x="152" y="298"/>
			<point x="81" y="371"/>
		</contour>
	</outline>
</glyph>
<glyph name="two.cap" format="1">
	<advance width="490"/>
	<outline>
		<contour>
			<point x="49" y="0" type="line"/>
			<point x="442" y="0" type="line"/>
			<point x="442" y="28" type="line"/>
			<point x="64" y="28" type="line"/>
			<point x="68" y="17" type="line"/>
			<point x="145" y="109"/>
			<point x="221" y="202"/>
			<point x="245" y="231" type="curve" smooth="yes"/>
			<point x="363" y="377"/>
			<point x="407" y="444"/>
			<point x="407" y="518" type="curve" smooth="yes"/>
			<point x="407" y="625"/>
			<point x="340" y="690"/>
			<point x="230" y="690" type="curve" smooth="yes"/>
			<point x="151" y="690"/>
			<point x="82" y="645"/>
			<point x="49" y="575" type="curve"/>
			<point x="53" y="566"/>
			<point x="60" y="561"/>
			<point x="69" y="561" type="curve" smooth="yes"/>
			<point x="80" y="561"/>
			<point x="87" y="569"/>
			<point x="94" y="582" type="curve" smooth="yes"/>
			<point x="134" y="659" type="line"/>
			<point x="101" y="628" type="line"/>
			<point x="149" y="659"/>
			<point x="181" y="670"/>
			<point x="226" y="670" type="curve" smooth="yes"/>
			<point x="325" y="670"/>
			<point x="375" y="601"/>
			<point x="375" y="519" type="curve" smooth="yes"/>
			<point x="375" y="447"/>
			<point x="342" y="390"/>
			<point x="241" y="261" type="curve" smooth="yes"/>
			<point x="195" y="203"/>
			<point x="122" y="112"/>
			<point x="49" y="22" type="curve"/>
		</contour>
	</outline>
</glyph>
<glyph name="zero.cap" format="1">
	<advance width="490"/>
	<outline>
		<contour>
			<point x="86" y="338" type="curve" smooth="yes"/>
			<point x="86" y="578"/>
			<point x="168" y="670"/>
			<point x="245" y="670" type="curve" smooth="yes"/>
			<point x="322" y="670"/>
			<point x="404" y="578"/>
			<point x="404" y="338" type="curve" smooth="yes"/>
			<point x="404" y="97"/>
			<point x="322" y="7"/>
			<point x="245" y="7" type="curve" smooth="yes"/>
			<point x="168" y="7"/>
			<point x="86" y="97"/>
		</contour>
		<contour>
			<point x="245" y="690" type="curve" smooth="yes"/>
			<point x="145" y="690"/>
			<point x="54" y="586"/>
			<point x="54" y="338" type="curve" smooth="yes"/>
			<point x="54" y="90"/>
			<point x="145" y="-13"/>
			<point x="245" y="-13" type="curve" smooth="yes"/>
			<point x="345" y="-13"/>
			<point x="436" y="90"/>
			<point x="436" y="338" type="curve" smooth="yes"/>
			<point x="436" y="586"/>
			<point x="345" y="690"/>
		</contour>
	</outline>
</glyph>
